<?xml version="1.0" standalone="no"?>
<!DOCTYPE svg PUBLIC "-//W3C//DTD SVG 20010904//EN"
 "http://www.w3.org/TR/2001/REC-SVG-20010904/DTD/svg10.dtd">
<svg version="1.0" xmlns="http://www.w3.org/2000/svg"
 width="600.000000pt" height="600.000000pt" viewBox="0 0 600.000000 600.000000"
 preserveAspectRatio="xMidYMid meet">

<g transform="translate(0.000000,600.000000) scale(0.100000,-0.100000)"
fill="#000000" stroke="none">
<path d="M2930 4623 c-8 -3 -33 -14 -55 -23 -22 -10 -67 -29 -100 -43 -33 -14
-98 -42 -145 -62 -129 -56 -219 -94 -285 -122 -33 -14 -78 -33 -100 -43 -22
-10 -67 -29 -100 -43 -33 -14 -96 -41 -140 -60 -186 -80 -451 -194 -625 -267
-438 -186 -462 -201 -503 -290 -41 -91 -18 -218 52 -284 17 -16 65 -48 108
-71 l78 -41 3 -451 2 -451 -41 -33 c-26 -21 -51 -54 -67 -87 -79 -173 44 -363
233 -361 145 0 250 91 262 226 8 88 -10 137 -73 203 l-54 57 0 382 c0 366 1
382 18 377 10 -4 100 -47 200 -96 l182 -90 0 -458 c0 -496 1 -510 56 -628 41
-89 156 -198 264 -251 107 -52 269 -98 430 -120 180 -25 760 -25 940 0 161 22
323 68 430 120 108 53 223 162 264 251 55 118 56 132 56 629 l0 458 275 134
c466 228 539 266 574 298 101 95 100 267 -2 366 -31 29 -184 101 -437 206 -30
12 -75 32 -100 43 -25 11 -137 59 -250 107 -113 48 -241 103 -285 122 -44 19
-107 46 -140 60 -33 14 -78 33 -100 43 -22 10 -67 29 -100 43 -33 14 -98 42
-145 62 -419 181 -456 195 -513 194 -29 0 -59 -3 -67 -6z m137 -422 c59 -26
250 -106 543 -228 47 -20 114 -48 150 -63 36 -15 106 -44 155 -64 50 -20 115
-48 145 -61 52 -23 142 -60 340 -141 47 -19 108 -46 135 -58 42 -20 47 -25 30
-31 -11 -4 -49 -20 -85 -36 -36 -15 -103 -43 -150 -63 -47 -19 -155 -64 -240
-99 -85 -36 -211 -89 -280 -117 -69 -29 -155 -65 -192 -81 -36 -16 -69 -29
-72 -29 -3 0 -31 -12 -62 -26 -31 -14 -73 -32 -93 -39 -20 -8 -90 -37 -156
-65 -66 -28 -146 -61 -177 -73 l-58 -21 -57 21 c-32 12 -112 45 -178 73 -66
28 -136 57 -156 65 -20 7 -62 25 -93 39 -31 14 -59 26 -62 26 -3 0 -36 13 -72
29 -37 16 -123 52 -192 81 -69 28 -195 81 -280 117 -85 35 -193 80 -240 99
-47 20 -114 48 -150 63 -36 16 -74 32 -85 36 -17 6 -12 11 30 31 28 13 95 42
150 64 55 23 138 57 185 76 47 19 110 46 140 59 30 13 96 41 145 61 50 20 119
49 155 64 36 15 103 43 150 63 319 133 484 202 540 227 36 16 66 29 67 29 2 1
33 -12 70 -28z m-620 -1532 c136 -44 307 -101 378 -125 77 -26 149 -44 175
-44 26 0 98 18 175 44 269 91 627 206 641 206 14 0 15 -42 12 -342 -3 -301 -5
-347 -20 -374 -20 -37 -66 -78 -118 -104 -207 -105 -1173 -105 -1380 0 -52 26
-98 67 -118 104 -15 27 -17 73 -20 374 -3 299 -1 342 12 342 8 0 127 -36 263
-81z"/>
</g>
</svg>
